<svg width="791" height="461" viewBox="0 0 791 461" fill="none" xmlns="http://www.w3.org/2000/svg">
<g filter="url(#filter0_f_10_209)">
<circle cx="647.113" cy="226.079" r="60.3774" transform="rotate(16.8826 647.113 226.079)" fill="#A7FF0E"/>
</g>
<g filter="url(#filter1_f_10_209)">
<ellipse cx="297" cy="238.999" rx="176.778" ry="45.5247" fill="#A7FF0E" fill-opacity="0.5"/>
</g>
<g filter="url(#filter2_di_10_209)">
<path d="M726.531 232.66C729.767 195.728 706.722 160.173 669.712 148.94C645.724 141.66 620.668 146.095 601.057 159.581C569.473 149.41 549.148 150.442 540.938 162.863C538.767 166.123 536.565 171.694 538.411 179.695C541.16 191.638 552.107 205.285 566.588 218.584C563.34 255.763 586.848 290.998 623.265 302.051C646.88 309.217 671.636 305.288 691.741 291.481C693.005 291.896 694.289 292.348 695.552 292.732C720.659 300.352 743.123 301.704 752.011 288.151C760.734 275.143 751.81 255.965 726.531 232.66ZM629.073 282.913C606.846 276.167 591.133 257.426 587.277 235.7C599.344 244.796 612.201 253.254 624.174 260.285C636.209 267.354 651.248 275.231 666.821 282.006C654.86 286.297 641.761 286.763 629.073 282.913ZM634.301 243.032C612.935 230.486 596.645 218.468 584.681 208.033C583.984 207.195 583.204 206.425 582.262 205.847C564.17 189.571 556.862 177.498 557.493 174.043C558.638 172.99 566.249 171.12 584.075 175.495C582.931 176.924 581.662 178.211 580.612 179.742C577.477 184.288 578.607 190.515 583.152 193.65C587.711 196.81 593.924 195.654 597.059 191.109C600.063 186.753 603.673 183.052 607.563 179.739C608.852 179.106 609.93 178.137 610.841 176.993C625.748 166.061 645.274 162.425 663.903 168.078C688.752 175.62 705.167 197.73 706.659 222.114C702.977 224.675 698.303 225.545 693.892 224.207C685.979 221.805 681.494 213.411 683.896 205.497C685.499 200.215 682.513 194.627 677.232 193.024C671.95 191.421 666.362 194.407 664.759 199.689C659.154 218.158 669.617 237.74 688.084 243.345C693.28 244.921 698.645 245.181 703.801 244.342C703.304 245.874 702.805 247.415 702.173 248.843C699.931 253.89 702.204 259.794 707.25 262.036C707.637 262.206 708.021 262.354 708.423 262.476C713.178 263.919 718.379 261.62 720.452 256.961C720.687 256.427 720.848 255.828 721.067 255.278C733.436 268.374 735.595 275.791 735.456 276.971C729.654 282.212 688.713 274.981 634.301 243.032Z" fill="url(#paint0_radial_10_209)"/>
<path d="M726.531 232.66C729.767 195.728 706.722 160.173 669.712 148.94C645.724 141.66 620.668 146.095 601.057 159.581C569.473 149.41 549.148 150.442 540.938 162.863C538.767 166.123 536.565 171.694 538.411 179.695C541.16 191.638 552.107 205.285 566.588 218.584C563.34 255.763 586.848 290.998 623.265 302.051C646.88 309.217 671.636 305.288 691.741 291.481C693.005 291.896 694.289 292.348 695.552 292.732C720.659 300.352 743.123 301.704 752.011 288.151C760.734 275.143 751.81 255.965 726.531 232.66ZM629.073 282.913C606.846 276.167 591.133 257.426 587.277 235.7C599.344 244.796 612.201 253.254 624.174 260.285C636.209 267.354 651.248 275.231 666.821 282.006C654.86 286.297 641.761 286.763 629.073 282.913ZM634.301 243.032C612.935 230.486 596.645 218.468 584.681 208.033C583.984 207.195 583.204 206.425 582.262 205.847C564.17 189.571 556.862 177.498 557.493 174.043C558.638 172.99 566.249 171.12 584.075 175.495C582.931 176.924 581.662 178.211 580.612 179.742C577.477 184.288 578.607 190.515 583.152 193.65C587.711 196.81 593.924 195.654 597.059 191.109C600.063 186.753 603.673 183.052 607.563 179.739C608.852 179.106 609.93 178.137 610.841 176.993C625.748 166.061 645.274 162.425 663.903 168.078C688.752 175.62 705.167 197.73 706.659 222.114C702.977 224.675 698.303 225.545 693.892 224.207C685.979 221.805 681.494 213.411 683.896 205.497C685.499 200.215 682.513 194.627 677.232 193.024C671.95 191.421 666.362 194.407 664.759 199.689C659.154 218.158 669.617 237.74 688.084 243.345C693.28 244.921 698.645 245.181 703.801 244.342C703.304 245.874 702.805 247.415 702.173 248.843C699.931 253.89 702.204 259.794 707.25 262.036C707.637 262.206 708.021 262.354 708.423 262.476C713.178 263.919 718.379 261.62 720.452 256.961C720.687 256.427 720.848 255.828 721.067 255.278C733.436 268.374 735.595 275.791 735.456 276.971C729.654 282.212 688.713 274.981 634.301 243.032Z" fill="url(#paint1_linear_10_209)"/>
<path d="M726.531 232.66C729.767 195.728 706.722 160.173 669.712 148.94C645.724 141.66 620.668 146.095 601.057 159.581C569.473 149.41 549.148 150.442 540.938 162.863C538.767 166.123 536.565 171.694 538.411 179.695C541.16 191.638 552.107 205.285 566.588 218.584C563.34 255.763 586.848 290.998 623.265 302.051C646.88 309.217 671.636 305.288 691.741 291.481C693.005 291.896 694.289 292.348 695.552 292.732C720.659 300.352 743.123 301.704 752.011 288.151C760.734 275.143 751.81 255.965 726.531 232.66ZM629.073 282.913C606.846 276.167 591.133 257.426 587.277 235.7C599.344 244.796 612.201 253.254 624.174 260.285C636.209 267.354 651.248 275.231 666.821 282.006C654.86 286.297 641.761 286.763 629.073 282.913ZM634.301 243.032C612.935 230.486 596.645 218.468 584.681 208.033C583.984 207.195 583.204 206.425 582.262 205.847C564.17 189.571 556.862 177.498 557.493 174.043C558.638 172.99 566.249 171.12 584.075 175.495C582.931 176.924 581.662 178.211 580.612 179.742C577.477 184.288 578.607 190.515 583.152 193.65C587.711 196.81 593.924 195.654 597.059 191.109C600.063 186.753 603.673 183.052 607.563 179.739C608.852 179.106 609.93 178.137 610.841 176.993C625.748 166.061 645.274 162.425 663.903 168.078C688.752 175.62 705.167 197.73 706.659 222.114C702.977 224.675 698.303 225.545 693.892 224.207C685.979 221.805 681.494 213.411 683.896 205.497C685.499 200.215 682.513 194.627 677.232 193.024C671.95 191.421 666.362 194.407 664.759 199.689C659.154 218.158 669.617 237.74 688.084 243.345C693.28 244.921 698.645 245.181 703.801 244.342C703.304 245.874 702.805 247.415 702.173 248.843C699.931 253.89 702.204 259.794 707.25 262.036C707.637 262.206 708.021 262.354 708.423 262.476C713.178 263.919 718.379 261.62 720.452 256.961C720.687 256.427 720.848 255.828 721.067 255.278C733.436 268.374 735.595 275.791 735.456 276.971C729.654 282.212 688.713 274.981 634.301 243.032Z" fill="url(#paint2_radial_10_209)"/>
<path d="M584.139 208.562L584.1 208.516C583.434 207.713 582.714 207.01 581.867 206.49L581.808 206.454L581.757 206.408C572.683 198.244 566.295 191.119 562.247 185.583C560.225 182.816 558.776 180.432 557.87 178.502C557.417 177.537 557.092 176.672 556.902 175.919C556.715 175.176 556.644 174.489 556.751 173.907L556.796 173.658L556.982 173.487C557.221 173.268 557.56 173.082 557.948 172.924C558.349 172.761 558.853 172.608 559.46 172.473C560.675 172.205 562.344 172.005 564.519 171.979C568.872 171.925 575.296 172.563 584.255 174.762L585.403 175.044L584.664 175.967C584.237 176.5 583.789 177.019 583.352 177.525C583.193 177.709 583.036 177.891 582.882 178.071C582.295 178.757 581.736 179.438 581.235 180.169L581.234 180.171C578.334 184.375 579.381 190.131 583.581 193.028L583.582 193.029C587.796 195.95 593.538 194.883 596.438 190.68L596.438 190.68C599.489 186.257 603.149 182.508 607.073 179.165L607.145 179.103L607.23 179.062C608.394 178.49 609.389 177.605 610.251 176.523L610.314 176.444L610.395 176.384C625.491 165.313 645.264 161.633 664.123 167.356C689.283 174.992 705.902 197.379 707.413 222.068L707.438 222.491L707.09 222.734C703.229 225.419 698.317 226.338 693.673 224.929C685.361 222.406 680.651 213.59 683.174 205.278C684.656 200.395 681.895 195.228 677.013 193.746C672.13 192.265 666.964 195.025 665.482 199.909C659.998 217.978 670.235 237.139 688.303 242.622C693.382 244.164 698.63 244.419 703.679 243.597L704.9 243.398L704.519 244.574L704.511 244.599C704.019 246.116 703.51 247.686 702.863 249.149L702.863 249.15C700.79 253.814 702.89 259.272 707.554 261.345C707.92 261.506 708.275 261.642 708.642 261.753C713.036 263.087 717.844 260.963 719.761 256.657L584.139 208.562ZM584.139 208.562L584.185 208.602M584.139 208.562L584.185 208.602M584.185 208.602C596.188 219.07 612.517 231.116 633.919 243.683C661.172 259.685 685.068 269.507 702.897 274.673C711.809 277.255 719.224 278.679 724.794 279.124C727.578 279.347 729.924 279.327 731.777 279.076C733.601 278.828 735.064 278.342 735.962 277.531L736.172 277.341L736.205 277.059C736.237 276.79 736.199 276.45 736.124 276.086C736.046 275.703 735.914 275.232 735.717 274.674C735.323 273.558 734.66 272.07 733.608 270.22C731.504 266.518 727.833 261.342 721.616 254.759L720.804 253.9M584.185 208.602L720.804 253.9M720.804 253.9L720.366 254.998M720.804 253.9L720.366 254.998M720.366 254.998C720.262 255.259 720.171 255.529 720.087 255.777M720.366 254.998L720.087 255.777M720.087 255.777L720.051 255.882M720.087 255.777L720.051 255.882M720.051 255.882C719.954 256.166 719.865 256.421 719.762 256.655L720.051 255.882ZM725.78 232.594L725.747 232.963L726.02 233.215C738.628 244.839 747.096 255.38 751.337 264.583C755.569 273.768 755.551 281.517 751.384 287.73L751.38 287.737C747.125 294.225 739.577 297.228 729.832 297.627C720.089 298.026 708.29 295.809 695.771 292.01C694.936 291.756 694.101 291.475 693.257 291.191C692.833 291.049 692.406 290.905 691.976 290.764L691.621 290.648L691.314 290.859C671.397 304.536 646.878 308.428 623.484 301.328C587.409 290.38 564.123 255.474 567.34 218.649L567.372 218.279L567.099 218.028C559.881 211.399 553.559 204.698 548.705 198.18C543.847 191.656 540.488 185.355 539.146 179.525L539.146 179.525C537.354 171.755 539.493 166.395 541.566 163.281L541.567 163.279C545.496 157.335 552.362 154.035 562.273 153.504C572.196 152.972 585.072 155.226 600.826 160.299L601.179 160.413L601.485 160.203C620.912 146.843 645.73 142.451 669.492 149.663C706.156 160.79 728.984 196.012 725.78 232.594ZM587.731 235.097L586.199 233.942L586.534 235.832C590.438 257.827 606.345 276.803 628.854 283.635C641.699 287.533 654.964 287.061 667.076 282.716L668.868 282.073L667.122 281.314C651.58 274.553 636.568 266.69 624.557 259.634L624.557 259.634C612.606 252.617 599.774 244.175 587.731 235.097Z" stroke="url(#paint3_linear_10_209)" stroke-width="1.50943" style="mix-blend-mode:soft-light"/>
</g>
<defs>
<filter id="filter0_f_10_209" x="472.908" y="51.8742" width="348.409" height="348.41" filterUnits="userSpaceOnUse" color-interpolation-filters="sRGB">
<feFlood flood-opacity="0" result="BackgroundImageFix"/>
<feBlend mode="normal" in="SourceGraphic" in2="BackgroundImageFix" result="shape"/>
<feGaussianBlur stdDeviation="56.9057" result="effect1_foregroundBlur_10_209"/>
</filter>
<filter id="filter1_f_10_209" x="0.222656" y="73.4746" width="593.555" height="331.049" filterUnits="userSpaceOnUse" color-interpolation-filters="sRGB">
<feFlood flood-opacity="0" result="BackgroundImageFix"/>
<feBlend mode="normal" in="SourceGraphic" in2="BackgroundImageFix" result="shape"/>
<feGaussianBlur stdDeviation="60" result="effect1_foregroundBlur_10_209"/>
</filter>
<filter id="filter2_di_10_209" x="513.192" y="123.953" width="266.602" height="209.158" filterUnits="userSpaceOnUse" color-interpolation-filters="sRGB">
<feFlood flood-opacity="0" result="BackgroundImageFix"/>
<feColorMatrix in="SourceAlpha" type="matrix" values="0 0 0 0 0 0 0 0 0 0 0 0 0 0 0 0 0 0 127 0" result="hardAlpha"/>
<feOffset dy="3.01887"/>
<feGaussianBlur stdDeviation="12.2642"/>
<feComposite in2="hardAlpha" operator="out"/>
<feColorMatrix type="matrix" values="0 0 0 0 0.635294 0 0 0 0 0.996078 0 0 0 0 0.0117647 0 0 0 0.27 0"/>
<feBlend mode="normal" in2="BackgroundImageFix" result="effect1_dropShadow_10_209"/>
<feBlend mode="normal" in="SourceGraphic" in2="effect1_dropShadow_10_209" result="shape"/>
<feColorMatrix in="SourceAlpha" type="matrix" values="0 0 0 0 0 0 0 0 0 0 0 0 0 0 0 0 0 0 127 0" result="hardAlpha"/>
<feOffset dy="-0.754717"/>
<feGaussianBlur stdDeviation="2.26415"/>
<feComposite in2="hardAlpha" operator="arithmetic" k2="-1" k3="1"/>
<feColorMatrix type="matrix" values="0 0 0 0 1 0 0 0 0 0.99172 0 0 0 0 0.50302 0 0 0 1 0"/>
<feBlend mode="normal" in2="shape" result="effect2_innerShadow_10_209"/>
</filter>
<radialGradient id="paint0_radial_10_209" cx="0" cy="0" r="1" gradientUnits="userSpaceOnUse" gradientTransform="translate(669.733 148.947) rotate(106.883) scale(160 222.081)">
<stop offset="0.668701" stop-color="white"/>
<stop offset="1" stop-color="#C2FF5D"/>
</radialGradient>
<linearGradient id="paint1_linear_10_209" x1="531.672" y1="190.65" x2="761.329" y2="260.348" gradientUnits="userSpaceOnUse">
<stop stop-color="#C2FE5E"/>
<stop offset="1" stop-color="#A2FE03"/>
</linearGradient>
<radialGradient id="paint2_radial_10_209" cx="0" cy="0" r="1" gradientUnits="userSpaceOnUse" gradientTransform="translate(666.282 149.99) rotate(82.384) scale(173.632 356.249)">
<stop stop-color="white"/>
<stop offset="0.509727" stop-color="white" stop-opacity="0"/>
</radialGradient>
<linearGradient id="paint3_linear_10_209" x1="641.277" y1="129.663" x2="686.098" y2="321.12" gradientUnits="userSpaceOnUse">
<stop stop-color="white" stop-opacity="0"/>
<stop offset="1" stop-color="white"/>
</linearGradient>
</defs>
</svg>
